<svg xmlns="http://www.w3.org/2000/svg" width="828" height="570.111" viewBox="0 0 828 570.111">
    <defs>
        <style>
            .prefix__cls-4{fill:none;stroke-miterlimit:10}.prefix__cls-3{fill:#f2f2f2}.prefix__cls-4{stroke:#3f3d56}.prefix__cls-5{fill:#fff}.prefix__cls-6{fill:#ffc1c7}.prefix__cls-7{opacity:.1}.prefix__cls-8{fill:#3f3d56}.prefix__cls-9{fill:#2f2e41}.prefix__cls-10{fill:#4ca0d8}
        </style>
    </defs>
    <g id="prefix__undraw_problem_solving_ft81_2_" data-name="undraw_problem_solving_ft81 (2)" transform="translate(-.491)">
        <path id="prefix__Path_25" d="M914.051 713.865q.883-.779 1.728-1.6c6.634-6.444 18.53-19.843 24.167-26.26a4.249 4.249 0 0 0-.762-6.29l-10.948-7.644.659-.334-7.856-11.361c.868-17.357-36.081-64.59-45.327-71.652s21.7-62.851 21.7-62.851c4.705-1.821 8.51-5.689 11.423-9.79.178.032.354.066.534.092l3.96-.365a7.036 7.036 0 0 0 6.372-6.461 126.3 126.3 0 0 0 .439-14.049c.806-2.43.823-6.817 6.1-10.3 6.9-4.551 51.213-118.422 30.824-139.267 0 0-8.686-12.987-13.6-14.576 0 0 .778-3.8-2.143-5.513l-1.414-4.457s-1.9.837-4.725 2.151a81.78 81.78 0 0 1-5.913-10.2c.98-4.255 15.686-23 2.5-35.961-13.382-13.15-19.992-22.072-29.962-18.515s-33.4 8.865-32.71 17.228-1.735 11.649 2.581 15.081 4.466 3.149 4.466 3.149a25.809 25.809 0 0 0 29.177 31.866 71.847 71.847 0 0 1 4.927 11.969 11.924 11.924 0 0 0-1.189 7.64 198.2 198.2 0 0 0-12.23 20.676c-2.924 5.642-8.333 17.59-14.26 30.321-10.41-3.358-19.823-6.754-19.823-6.754s-.546.643-1.4 1.7a60 60 0 0 0-8.919-.839l-25.137-25.314a2.079 2.079 0 0 0-2.753-.343L802.45 375.51a2.642 2.642 0 0 0-.054 3.827l21.883 23.231c-1.717 1.843 1.206 4.095 5.927 6.292l5.749 6.1a2.043 2.043 0 0 0 3.131.082l1.948-2.053c3.556 1.171 7.078 2.208 9.925 3.006-.209 1.024-.061 1.775.6 2.1 1.2.589 7.6 4.148 16.33 8.6-3.494 6.582-6.53 11.6-8.583 13.584-6.287 6.07-6.135 22.82-5.813 29.39-2 3-4.811 7.606-4.749 9.749-11.083 16.506-30.79 47.632-33.841 64.528 0 0-14.324 19.107-16.349 44.23s-27.641 83.314-29.266 84.144c-.247.126-.208.645.1 1.408-8.464 2.928 13.537 40.314 18.017 39.05 3.893-1.1 9.777-21.018 9.768-27.139.135-.035.266-.059.4-.1 0 0 5.384-14.539 9.447-16.615s24.93-66.553 24.841-76.758c-.014-1.565 1.342-4.194 3.639-7.516a28.14 28.14 0 0 0 11.134 16.367c29.564 19.743 49.7 81.207 53.382 82.4a2.2 2.2 0 0 0 .656.068c.314 8.766.14 25.388-5.517 27.529a11.819 11.819 0 0 0-4.474 2.993" data-name="Path 25" transform="translate(-234.59 -144.373)" style="fill:rgba(242,242,242,.16)"/>
        <path id="prefix__Path_26" d="M1065.537 624.587a17.12 17.12 0 0 0-17.946 1.485c-7.679 5.849-8.849 17.294-5.962 26.5s8.932 17.036 13.664 25.45c6.356 11.3 10.449 24.232 9.394 37.155s-7.836 25.74-19.144 32.084c-10.5 5.888-23.21 5.663-35.238 5.28" data-name="Path 26" transform="translate(-260.347 -183.071)" style="stroke:#f2f2f2;fill:none;stroke-miterlimit:10"/>
        <ellipse id="prefix__Ellipse_20" cx="6.332" cy="13.037" class="prefix__cls-3" data-name="Ellipse 20" rx="6.332" ry="13.037" transform="rotate(-59.77 787.124 -471.8)"/>
        <ellipse id="prefix__Ellipse_21" cx="6.332" cy="13.037" class="prefix__cls-3" data-name="Ellipse 21" rx="6.332" ry="13.037" transform="rotate(-59.77 817.058 -440.717)"/>
        <ellipse id="prefix__Ellipse_22" cx="6.332" cy="13.037" class="prefix__cls-3" data-name="Ellipse 22" rx="6.332" ry="13.037" transform="rotate(-59.77 799.666 -422.969)"/>
        <ellipse id="prefix__Ellipse_23" cx="6.332" cy="13.037" class="prefix__cls-3" data-name="Ellipse 23" rx="6.332" ry="13.037" transform="rotate(-59.77 849.58 -411.129)"/>
        <ellipse id="prefix__Ellipse_24" cx="6.332" cy="13.037" class="prefix__cls-3" data-name="Ellipse 24" rx="6.332" ry="13.037" transform="rotate(-59.77 872.266 -424.165)"/>
        <path id="prefix__Path_27" d="M989.579 613.28a17.121 17.121 0 0 0-14.757 10.32c-3.69 8.92 1.061 19.4 8.194 25.9s16.295 10.222 24.619 15.109c11.181 6.564 21.229 15.676 26.823 27.372s6.19 26.185-.386 37.359c-6.1 10.371-17.2 16.579-27.788 22.3" class="prefix__cls-4" data-name="Path 27" transform="translate(-256.448 -182.069)"/>
        <ellipse id="prefix__Ellipse_25" cx="13.037" cy="6.332" class="prefix__cls-5" data-name="Ellipse 25" rx="13.037" ry="6.332" transform="translate(729.495 425.655)"/>
        <ellipse id="prefix__Ellipse_26" cx="13.037" cy="6.332" class="prefix__cls-5" data-name="Ellipse 26" rx="13.037" ry="6.332" transform="translate(739.925 467.373)"/>
        <ellipse id="prefix__Ellipse_27" cx="13.037" cy="6.332" class="prefix__cls-5" data-name="Ellipse 27" rx="13.037" ry="6.332" transform="translate(716.086 474.077)"/>
        <ellipse id="prefix__Ellipse_28" cx="13.037" cy="6.332" class="prefix__cls-5" data-name="Ellipse 28" rx="13.037" ry="6.332" transform="translate(753.334 509.089)"/>
        <ellipse id="prefix__Ellipse_29" cx="13.037" cy="6.332" class="prefix__cls-5" data-name="Ellipse 29" rx="13.037" ry="6.332" transform="translate(779.407 509.089)"/>
        <path id="prefix__Line_3" d="M0 0L368.301 0" class="prefix__cls-4" data-name="Line 3" transform="translate(437.179 569.49)"/>
        <path id="prefix__Path_28" d="M757.793 415.593s-40.965 6.473-35.93-1.7 31.842-16.329 36.758-14.624-.828 16.324-.828 16.324z" class="prefix__cls-6" data-name="Path 28" transform="translate(-208.862 -159.347)"/>
        <path id="prefix__Path_29" d="M757.793 415.593s-40.965 6.473-35.93-1.7 31.842-16.329 36.758-14.624-.828 16.324-.828 16.324z" class="prefix__cls-7" data-name="Path 29" transform="translate(-208.862 -159.347)"/>
        <path id="prefix__Path_30" d="M808.077 315.183s-26.462 7.1-14.2 29.689c0 0 20.008 39.37 11.617 41.952s-47.115 1.291-47.115 1.291-9.036 21.944-4.518 22.59 76.8 15.49 84.55 1.291 0-75.514 0-75.514-10.971-30.335-30.334-21.299z" class="prefix__cls-5" data-name="Path 30" transform="translate(-216.662 -150.273)"/>
        <path id="prefix__Path_31" d="M808.077 315.183s-26.462 7.1-14.2 29.689c0 0 20.008 39.37 11.617 41.952s-47.115 1.291-47.115 1.291-9.036 21.944-4.518 22.59 76.8 15.49 84.55 1.291 0-75.514 0-75.514-10.971-30.335-30.334-21.299z" class="prefix__cls-7" data-name="Path 31" transform="translate(-216.662 -150.273)"/>
        <path id="prefix__Path_32" d="M898.412 688.906s11.618 27.753 5.163 32.916-5.163 14.845-.645 14.845 14.845-9.036 20.653-20.008c4.327-8.173 11.52-24.585 14.907-32.425a4.249 4.249 0 0 0-2.662-5.75l-18.7-5.714z" class="prefix__cls-8" data-name="Path 32" transform="translate(-238.789 -188.379)"/>
        <path id="prefix__Path_33" d="M755.554 728.364s-24.526 20.008-37.434 19.363-14.845 12.908 0 14.845 59.378 2.582 63.251 0 2.582-29.689 0-30.335-25.817-3.873-25.817-3.873z" class="prefix__cls-8" data-name="Path 33" transform="translate(-208.263 -194.276)"/>
        <path id="prefix__Path_34" d="M847.706 495.826s0 20.008-10.327 28.4c0 0-12.263 62.605-1.291 66.478s60.669 37.434 65.187 54.215l10.972 8.39s-20.008 20.008-23.88 20.008-41.952-52.279-76.159-61.96c0 0-21.3-5.163-20.653-32.916s25.817-101.331 25.817-101.331h29.044z" class="prefix__cls-9" data-name="Path 34" transform="translate(-225.257 -167.626)"/>
        <path id="prefix__Path_35" d="M847.706 495.826s0 20.008-10.327 28.4c0 0-12.263 62.605-1.291 66.478s60.669 37.434 65.187 54.215l10.972 8.39s-20.008 20.008-23.88 20.008-41.952-52.279-76.159-61.96c0 0-21.3-5.163-20.653-32.916s25.817-101.331 25.817-101.331h29.044z" class="prefix__cls-7" data-name="Path 35" transform="translate(-225.257 -167.626)"/>
        <path id="prefix__Path_36" d="M776.881 481.43s-19.363 60.669-16.135 84.55c0 0-7.745 22.59-1.936 47.115s-.645 87.777-1.936 89.068 14.2 14.845 30.98 3.872c0 0 .645-15.49 3.872-18.717s3.227-71 0-80.677 34.853-80.032 34.853-80.032 20.653-18.717 12.908-28.4.645-29.044.645-29.044L781.4 473.04z" class="prefix__cls-9" data-name="Path 36" transform="translate(-217.108 -166.784)"/>
        <circle id="prefix__Ellipse_30" cx="25.817" cy="25.817" r="25.817" class="prefix__cls-6" data-name="Ellipse 30" transform="translate(527.659 115.212)"/>
        <path id="prefix__Path_37" d="M786.324 275.672s20.653 23.881 25.817 24.526-16.781 28.4-16.781 28.4-12.263-20.653-20.653-22.59 11.617-30.336 11.617-30.336z" class="prefix__cls-6" data-name="Path 37" transform="translate(-217.555 -146.261)"/>
        <path id="prefix__Path_38" d="M818.016 301.85l-3.227-4.518s-22.237 19.824-23.059 25.079a11.385 11.385 0 0 0 1.76 8.482l12.908-5.809 6.454-12.908z" class="prefix__cls-8" data-name="Path 38" transform="translate(-220.053 -148.558)"/>
        <path id="prefix__Path_39" d="M777.514 481.288s-5.163 15.49-1.291 14.845 3.872-9.036 8.39-9.036 7.1-7.1 7.1-7.1z" class="prefix__cls-8" data-name="Path 39" transform="translate(-216.789 -167.933)"/>
        <path id="prefix__Path_40" d="M814.66 482.885s14.845 32.271 33.562 29.044l3.655-1.566a7.036 7.036 0 0 0 4.073-8.11c-1.783-7.433-5.062-19.368-7.728-19.368z" class="prefix__cls-8" data-name="Path 40" transform="translate(-224.709 -168.239)"/>
        <path id="prefix__Path_41" d="M738.855 285.229s2.526-8.075 10.917-4.847 15.49 10.327 17.426 5.163 6.891-9.913 10.223-5.925 18.5 11.411 17.853 7.538 8.068-26.785-8.713-35.175-25.817-14.845-34.207-8.39-29.044 18.717-25.817 26.462 1.936 11.618 7.1 13.554 5.218 1.62 5.218 1.62z" class="prefix__cls-9" data-name="Path 41" transform="translate(-211.169 -142.58)"/>
        <path id="prefix__Path_42" d="M819.075 306.16s-.645-5.809-6.454-4.518-21.3 27.107-21.3 27.107a182.574 182.574 0 0 0-5.809 25.171c-2.582 15.49-7.745 72.287-12.908 81.968s4.518 32.271 4.518 32.271 5.809-6.454 24.526-2.582 43.243 7.745 45.179 5.809-1.936-7.1 3.227-13.554 12.263-128.437-13.554-141.991c0 0-12.262-9.681-17.425-9.681z" class="prefix__cls-5" data-name="Path 42" transform="translate(-219.56 -148.996)"/>
        <path id="prefix__Path_43" d="M811.441 328.179s-26.462 7.1-14.2 29.689c0 0 20.008 39.37 11.617 41.952s-47.115 1.291-47.115 1.291-4.2 13.876.323 14.522 71.964 23.558 79.709 9.359 0-75.514 0-75.514-10.975-30.335-30.334-21.299z" class="prefix__cls-7" data-name="Path 43" transform="translate(-217.717 -151.652)"/>
        <path id="prefix__Path_44" d="M691.049 404.061l42.9 23.563a2.043 2.043 0 0 0 3-.886l10.509-21.966a2.742 2.742 0 0 0-1.405-3.293l-35.616-18.358a2.079 2.079 0 0 0-2.725.521l-17.79 16.76a2.642 2.642 0 0 0 1.127 3.657z" class="prefix__cls-9" data-name="Path 44" transform="translate(-204.32 -157.626)"/>
        <path id="prefix__Path_45" d="M589.51 270.2l40.216 22.987 10.7-19.288-34.5-18.761z" class="prefix__cls-8" data-name="Path 45" transform="translate(-99.908 -27.008)"/>
        <ellipse id="prefix__Ellipse_31" cx=".505" cy=".592" class="prefix__cls-3" data-name="Ellipse 31" rx=".505" ry=".592" transform="rotate(-39.842 587.13 -603.258)"/>
        <ellipse id="prefix__Ellipse_32" cx=".337" cy=".395" class="prefix__cls-3" data-name="Ellipse 32" rx=".337" ry=".395" transform="rotate(-39.842 607.58 -574.508)"/>
        <path id="prefix__Path_46" d="M758.483 426.524s-41.371 2.9-35.648-4.8 33.136-13.509 37.887-11.386-2.239 16.186-2.239 16.186z" class="prefix__cls-6" data-name="Path 46" transform="translate(-209.048 -160.497)"/>
        <path id="prefix__Path_47" d="M810.965 323.847s-26.462 7.1-14.2 29.689c0 0 20.008 39.37 11.617 41.952s-47.115 1.291-47.115 1.291-9.036 21.944-4.518 22.59 76.8 15.49 84.55 1.291 0-75.514 0-75.514-10.971-30.335-30.334-21.299z" class="prefix__cls-5" data-name="Path 47" transform="translate(-217.16 -151.192)"/>
        <rect id="prefix__Rectangle_12" width="232.448" height="115.47" class="prefix__cls-3" data-name="Rectangle 12" rx="13.524" transform="translate(215.096 144.272)"/>
        <circle id="prefix__Ellipse_33" cx="15.197" cy="15.197" r="15.197" class="prefix__cls-5" data-name="Ellipse 33" transform="translate(.491 5.864)"/>
        <circle id="prefix__Ellipse_34" cx="15.197" cy="15.197" r="15.197" class="prefix__cls-4" data-name="Ellipse 34" transform="translate(4.961 .5)"/>
        <circle id="prefix__Ellipse_35" cx="15.197" cy="15.197" r="15.197" class="prefix__cls-3" data-name="Ellipse 35" transform="translate(172.127 197.166)"/>
        <circle id="prefix__Ellipse_36" cx="15.197" cy="15.197" r="15.197" class="prefix__cls-4" data-name="Ellipse 36" transform="translate(176.597 191.802)"/>
        <circle id="prefix__Ellipse_37" cx="15.197" cy="15.197" r="15.197" class="prefix__cls-5" data-name="Ellipse 37" transform="translate(282.081 81.848)"/>
        <circle id="prefix__Ellipse_38" cx="15.197" cy="15.197" r="15.197" class="prefix__cls-4" data-name="Ellipse 38" transform="translate(286.551 76.484)"/>
        <rect id="prefix__Rectangle_13" width="232.448" height="115.47" class="prefix__cls-5" data-name="Rectangle 13" rx="13.524" transform="translate(34.665 56.349)"/>
        <rect id="prefix__Rectangle_14" width="232.448" height="115.47" class="prefix__cls-4" data-name="Rectangle 14" rx="13.524" transform="translate(48.249 46.538)"/>
        <rect id="prefix__Rectangle_15" width="232.448" height="115.47" class="prefix__cls-4" data-name="Rectangle 15" rx="13.524" transform="translate(227.448 134.461)"/>
        <path id="prefix__Path_97" d="M589.768 113.3H575.66V99.473h14.119zm-.2-20.848h-13.7c0-21.487 20.536-20.231 20.536-33.825a13.585 13.585 0 0 0-13.69-13.486 13.934 13.934 0 0 0-13.689 13.7H555.33a27.109 27.109 0 0 1 8.005-19.268 27.432 27.432 0 0 1 46.753 19.055c0 17-20.534 18.933-20.534 33.825z" class="prefix__cls-10" data-name="Path 97" transform="translate(-252.869 123.816)"/>
        <g id="prefix__undraw_online_test_gba7" transform="translate(87.722 76.836)">
            <path id="prefix__Rectangle_40" d="M0 0H126.317V4.694H0z" class="prefix__cls-10" data-name="Rectangle 40"/>
            <path id="prefix__Rectangle_39" d="M0 0H126.317V4.694H0z" class="prefix__cls-10" data-name="Rectangle 39" transform="translate(0 14.863)"/>
            <path id="prefix__Rectangle_38" d="M0 0H126.317V4.694H0z" class="prefix__cls-10" data-name="Rectangle 38" transform="translate(0 29.727)"/>
            <path id="prefix__Rectangle_37" d="M0 0H126.317V4.694H0z" class="prefix__cls-10" data-name="Rectangle 37" transform="translate(0 44.59)"/>
            <path id="prefix__Rectangle_41" d="M0 0H126.317V4.694H0z" class="prefix__cls-10" data-name="Rectangle 41" transform="translate(0 59.454)"/>
        </g>
    </g>
</svg>
