<svg xmlns="http://www.w3.org/2000/svg" id="prefix__undraw_quiz_nlyh" width="865.916" height="660" viewBox="0 0 865.916 660">
    <defs>
        <style>
            .prefix__cls-1{fill:#3f3d56}.prefix__cls-2{opacity:.1}.prefix__cls-3{fill:#d0cde1}.prefix__cls-4{fill:#1251a4}.prefix__cls-5{fill:#f2f2f2}.prefix__cls-7{fill:#ffb8b8}.prefix__cls-8{fill:#575a89}.prefix__cls-9{fill:#2f2e41}
        </style>
    </defs>
    <path id="prefix__Rectangle_44" d="M0 0H785.452V2.785H0z" class="prefix__cls-1" data-name="Rectangle 44" transform="translate(69.387 494.17)"/>
    <path id="prefix__Rectangle_45" d="M0 0H744.877V437.904H0z" class="prefix__cls-1" data-name="Rectangle 45"/>
    <path id="prefix__Path_5895" d="M81.551 153.685v-12.03h22.9V120h9.959v21.655h679.156V120h9.959v21.655h22.9v12.03h-22.9v370.534h22.9v12.03h-22.9V557.9h-9.958v-21.651H114.414V557.9h-9.958v-21.651h-22.9v-12.03h22.9V153.685zm32.862 370.534h679.153V153.685H114.414z" class="prefix__cls-2" data-name="Path 5895" transform="translate(-81.551 -120)"/>
    <path id="prefix__Rectangle_46" d="M0 0H141.887V134.967H0z" class="prefix__cls-3" data-name="Rectangle 46" transform="translate(296.723 57.745)"/>
    <path id="prefix__Rectangle_47" d="M0 0H109.64V83.842H0z" class="prefix__cls-4" data-name="Rectangle 47" transform="translate(312.353 73.869)"/>
    <path id="prefix__Rectangle_48" d="M0 0H38.437V38.437H0z" class="prefix__cls-5" data-name="Rectangle 48" transform="translate(356.642 87.648)"/>
    <path id="prefix__Path_5896" d="M580.927 217.259v46.674h-46.674v-46.674zm-44.649 44.649H578.9v-42.624h-42.623z" class="prefix__cls-1" data-name="Path 5896" transform="translate(-197.475 -120)"/>
    <path id="prefix__Rectangle_49" d="M0 0H59.637V3.139H0z" class="prefix__cls-5" data-name="Rectangle 49" transform="translate(357.714 166.033)"/>
    <circle id="prefix__Ellipse_39" cx="6.278" cy="6.278" r="6.278" class="prefix__cls-1" data-name="Ellipse 39" transform="translate(359.597 59.315)"/>
    <path id="prefix__Rectangle_50" d="M0 0H141.887V134.967H0z" class="prefix__cls-3" data-name="Rectangle 50" transform="translate(252.646 252.409)"/>
    <path id="prefix__Rectangle_51" d="M0 0H109.64V83.842H0z" class="prefix__cls-4" data-name="Rectangle 51" transform="translate(267.941 268.532)"/>
    <path id="prefix__Rectangle_52" d="M0 0H59.637V3.139H0z" class="prefix__cls-5" data-name="Rectangle 52" transform="translate(312.83 362.266)"/>
    <path id="prefix__Rectangle_53" d="M0 0H59.637V3.139H0z" class="prefix__cls-5" data-name="Rectangle 53" transform="translate(312.83 371.682)"/>
    <circle id="prefix__Ellipse_40" cx="12.555" cy="12.555" r="12.555" class="prefix__cls-1" data-name="Ellipse 40" transform="translate(338.104 297.921)"/>
    <circle id="prefix__Ellipse_41" cx="12.555" cy="12.555" r="12.555" class="prefix__cls-5" data-name="Ellipse 41" transform="translate(308.289 297.921)"/>
    <circle id="prefix__Ellipse_42" cx="12.555" cy="12.555" r="12.555" data-name="Ellipse 42" transform="translate(278.474 297.921)" style="fill:#ff6584"/>
    <circle id="prefix__Ellipse_43" cx="6.278" cy="6.278" r="6.278" class="prefix__cls-1" data-name="Ellipse 43" transform="translate(314.31 253.978)"/>
    <path id="prefix__Rectangle_54" d="M0 0H141.887V134.967H0z" class="prefix__cls-3" data-name="Rectangle 54" transform="translate(431.508 210.238)"/>
    <path id="prefix__Rectangle_55" d="M0 0H109.64V83.842H0z" class="prefix__cls-4" data-name="Rectangle 55" transform="translate(448.158 226.362)"/>
    <circle id="prefix__Ellipse_44" cx="26.619" cy="26.619" r="26.619" class="prefix__cls-5" data-name="Ellipse 44" transform="translate(483.326 251.463)"/>
    <path id="prefix__Path_5897" d="M387.141 418.614a33.374 33.374 0 1 0-33.374-33.374 33.374 33.374 0 0 0 33.374 33.374zm0-65.534a32.16 32.16 0 1 1-32.16 32.16 32.16 32.16 0 0 1 32.16-32.16z" class="prefix__cls-1" data-name="Path 5897" transform="translate(116.025 -120)"/>
    <path id="prefix__Rectangle_56" d="M0 0H59.637V3.139H0z" class="prefix__cls-5" data-name="Rectangle 56" transform="translate(494.967 327.943)"/>
    <path id="prefix__Rectangle_57" d="M0 0H83.177V3.139H0z" class="prefix__cls-5" data-name="Rectangle 57" transform="translate(472.929 318.526)"/>
    <circle id="prefix__Ellipse_45" cx="6.278" cy="6.278" r="6.278" class="prefix__cls-1" data-name="Ellipse 45" transform="translate(498.082 211.807)"/>
    <path id="prefix__Rectangle_58" d="M0 0H141.887V134.967H0z" class="prefix__cls-3" data-name="Rectangle 58" transform="translate(559.959 55.339)"/>
    <path id="prefix__Rectangle_59" d="M0 0H109.64V83.842H0z" class="prefix__cls-4" data-name="Rectangle 59" transform="translate(577.582 71.463)"/>
    <path id="prefix__Rectangle_60" d="M0 0H23.587V6.99H0z" class="prefix__cls-1" data-name="Rectangle 60" transform="translate(624.136 137.099)"/>
    <path id="prefix__Rectangle_61" d="M0 0H80.617V2.996H0z" class="prefix__cls-1" data-name="Rectangle 61" transform="translate(593.356 82.679)"/>
    <path id="prefix__Rectangle_62" d="M0 0H80.617V2.996H0z" class="prefix__cls-1" data-name="Rectangle 62" transform="translate(593.356 92.165)"/>
    <path id="prefix__Rectangle_63" d="M0 0H80.617V2.996H0z" class="prefix__cls-1" data-name="Rectangle 63" transform="translate(593.356 101.651)"/>
    <path id="prefix__Rectangle_64" d="M0 0H80.617V2.996H0z" class="prefix__cls-1" data-name="Rectangle 64" transform="translate(593.356 111.137)"/>
    <path id="prefix__Rectangle_65" d="M0 0H80.617V2.996H0z" class="prefix__cls-1" data-name="Rectangle 65" transform="translate(593.356 120.623)"/>
    <path id="prefix__Rectangle_66" d="M0 0H59.637V3.139H0z" class="prefix__cls-5" data-name="Rectangle 66" transform="translate(625.771 163.627)"/>
    <path id="prefix__Rectangle_67" d="M0 0H83.177V3.139H0z" class="prefix__cls-5" data-name="Rectangle 67" transform="translate(603.102 171.474)"/>
    <circle id="prefix__Ellipse_46" cx="6.278" cy="6.278" r="6.278" class="prefix__cls-1" data-name="Ellipse 46" transform="translate(630.06 56.909)"/>
    <path id="prefix__Path_5898" d="M874.356 263.51L771.6 271.06l-29.06 2.135 1.8-1.8-5.457 78.941-2.727 39.464c-.11 1.595-.223 3.189-.331 4.784-.089 1.326-.454 2.6 1.116 2.931 3.123.651 6.375.922 9.539 1.321q9.647 1.217 19.337 2.049a490.067 490.067 0 0 0 77.7.487q9.7-.71 19.361-1.808c2.4-.272 5.37-.374 6.245-3.061.9-2.77 1.057-5.919 1.465-8.794q2.725-19.208 3.714-38.614a443.058 443.058 0 0 0-2.73-77.258q-.581-4.707-1.269-9.4c-.331-2.272 3.146-3.253 3.48-.959a446.738 446.738 0 0 1 4.459 80q-.7 20.072-3.214 40.026-.636 5.04-1.381 10.065c-.4 2.666-.494 5.809-2.08 8.1-1.531 2.21-4.1 2.919-6.627 3.256-3.215.429-6.452.736-9.679 1.051a489.831 489.831 0 0 1-80.634 1.193q-10.142-.687-20.25-1.794-4.979-.546-9.946-1.194-2.431-.317-4.86-.656a22.371 22.371 0 0 1-4.467-.778c-3.041-1.1-3.04-4.029-2.851-6.763l.7-10.167 1.406-20.333 5.664-81.931.7-10.167a1.858 1.858 0 0 1 1.8-1.8l102.758-7.55 29.06-2.135c2.317-.17 2.306 3.44 0 3.609z" class="prefix__cls-3" data-name="Path 5898" transform="translate(-629.278 -120)"/>
    <path id="prefix__Path_5899" d="M780.378 306.118c.519-1.378-.786 1.59-.131.277.174-.349.337-.7.521-1.045a19.933 19.933 0 0 1 1.22-1.982c.443-.634 1.116-.879-.194.224a9.444 9.444 0 0 0 .76-.881 22.2 22.2 0 0 1 1.952-1.892c.495-.425 1.431-.786-.244.154.331-.186.639-.464.955-.677q.974-.655 2.008-1.212.517-.279 1.047-.532c.6-.287 1.6-.385-.29.1.811-.208 1.6-.591 2.407-.822q1.034-.294 2.091-.494c.629-.119 1.772-.029-.378.02.384-.009.778-.083 1.162-.109a21.942 21.942 0 0 1 2.329-.035c.388.015.773.053 1.161.077 1.287.077-1.947-.357 0 .014a19.661 19.661 0 0 1 2.259.57 8.61 8.61 0 0 0 1.105.388l-1-.43q.367.16.728.334a20.085 20.085 0 0 1 2.08 1.163c.334.213.653.445.98.668 1.027.7-1.377-1.176.08.1q.741.65 1.422 1.365.409.429.795.879c.433.5.764 1.426-.139-.226.827 1.511 1.86 2.882 2.639 4.441.664 1.329-.605-1.651-.1-.252.136.377.282.75.411 1.13q.385 1.141.665 2.314c.187.783.278 1.583.45 2.366-.473-2.157-.127-.909-.081-.323q.064.8.077 1.6.016 1-.049 2c-.025.391-.113.806-.108 1.2-.027-2.025.147-1.016.021-.336a22.673 22.673 0 0 1-.56 2.334q-.172.577-.374 1.143-.18.5-.38 1 .582-1.355.093-.258c-1.993 3.987-4.477 7.7-6.437 11.7a53.4 53.4 0 0 0-4.68 32.162 7.222 7.222 0 0 0 3.317 4.314 7.371 7.371 0 0 0 5.562.728c4.069-1.317 5.668-4.869 5.041-8.879-.221-1.413.116 1.26-.029-.163-.062-.61-.124-1.219-.167-1.831q-.129-1.834-.105-3.674.02-1.576.152-3.148a9.327 9.327 0 0 1 .19-1.829s-.232 1.451-.075.618c.065-.344.111-.692.173-1.036a44.584 44.584 0 0 1 1.792-6.854c.173-.5.363-.986.545-1.478.482-1.3-.5 1.044.081-.215.52-1.123 1.057-2.231 1.649-3.318 2.485-4.565 5.3-8.842 7.106-13.752a28.855 28.855 0 0 0 1.6-12.03c-.67-8.419-4.239-16.96-10.892-22.411a28.408 28.408 0 0 0-25.1-5.719 30.007 30.007 0 0 0-21.041 18.62c-1.333 3.54 1.479 8.068 5.041 8.879 4.106.935 7.452-1.251 8.879-5.041z" class="prefix__cls-3" data-name="Path 5899" transform="translate(-633.671 -120)"/>
    <path id="prefix__Path_5900" d="M805.6 392.116a6 6 0 1 1 6-6 6.068 6.068 0 0 1-6 6z" class="prefix__cls-3" data-name="Path 5900" transform="translate(-629.773 -120)"/>
    <path id="prefix__Rectangle_68" d="M0 0H33.685V33.685H0z" class="prefix__cls-4" data-name="Rectangle 68" transform="translate(41.942 481.99)"/>
    <path id="prefix__Path_5901" d="M175.477 616.426h-40.9v-40.9h40.9zm-39.125-1.778H173.7V577.3h-37.348z" class="prefix__cls-1" data-name="Path 5901" transform="translate(-79.398 -120)"/>
    <g id="prefix__Group_583" data-name="Group 583" transform="translate(617.977 1.203)">
        <path id="prefix__Path_5902" d="M905.026 420.156l-4.812 14.436s-30.076 34.888-8.421 39.7S915.853 437 915.853 437l6.015-12.03z" class="prefix__cls-7" data-name="Path 5902" transform="translate(-870.513 -121.204)"/>
        <path id="prefix__Path_5903" d="M938.711 245.717s-7.218-1.2-9.624 27.67-3.609 79.4-3.609 79.4l-27.67 70.979 34.892 10.827 16.842-80.6z" class="prefix__cls-8" data-name="Path 5903" transform="translate(-870.513 -121.203)"/>
        <path id="prefix__Path_5904" d="M841.521 555.2l-3.609 22.858h32.482l-1.2-22.858z" class="prefix__cls-7" data-name="Path 5904" transform="translate(-788.962 -1.203)"/>
        <path id="prefix__Path_5905" d="M946.185 580.463l-2.407 31.279 21.655 2.406v-36.091z" class="prefix__cls-7" data-name="Path 5905" transform="translate(-788.962 -1.203)"/>
        <path id="prefix__Path_5906" d="M936.3 376.847l-27.67 158.8 7.218 144.364h37.294v-131.13l36.091-67.37 28.872 84.212 7.218 140.755 40.9-7.218-9.621-137.146s-7.218-182.861-14.436-185.267-105.866 0-105.866 0z" class="prefix__cls-9" data-name="Path 5906" transform="translate(-870.513 -121.203)"/>
        <path id="prefix__Path_5907" d="M926.681 690.839s0-12.03-9.624-4.812-21.657 20.451-21.657 20.451-45.715 25.264-13.233 28.873 52.933-16.843 52.933-16.843l3.609 3.609s19.248-3.609 19.248-8.421a92.885 92.885 0 0 0-1.2-12.03s-2.53-20.406-5.476-16.218-19.788 12.609-24.6 5.391z" class="prefix__cls-9" data-name="Path 5907" transform="translate(-870.513 -121.203)"/>
        <path id="prefix__Path_5908" d="M1048.19 724.523s-21.655-10.827-26.467-1.2-8.421 28.873-8.421 28.873-15.643 30.076 12.028 27.67 26.467-18.046 26.467-21.655-1.2-12.03 0-15.639-3.607-18.049-3.607-18.049z" class="prefix__cls-9" data-name="Path 5908" transform="translate(-870.513 -121.203)"/>
        <circle id="prefix__Ellipse_47" cx="33.685" cy="33.685" r="33.685" class="prefix__cls-7" data-name="Ellipse 47" transform="translate(96.469 9.624)"/>
        <path id="prefix__Path_5909" d="M896.86 60.753l-1.2 43.309 43.309-3.609v-39.7z" class="prefix__cls-7" data-name="Path 5909" transform="translate(-788.962 -1.203)"/>
        <path id="prefix__Path_5910" d="M1022.92 198.8s-20.451 13.233-26.467 15.639-19.248-9.624-19.248-9.624-3.609 2.406-3.609 4.812-2.406 12.03-2.406 12.03L942.32 316.7l2.406 67.37s87.821 8.421 97.446-2.406-4.812-166.018-4.812-166.018z" class="prefix__cls-3" data-name="Path 5910" transform="translate(-870.513 -121.203)"/>
        <path id="prefix__Path_5911" d="M1016.91 224.062s-32.482 12.03-43.309 1.2c-.001.003 15.637 3.612 43.309-1.2z" class="prefix__cls-2" data-name="Path 5911" transform="translate(-870.513 -121.203)"/>
        <path id="prefix__Path_5912" d="M1102.32 485.12c-13.233 8.421-56.542 19.249-56.542 19.249s-4.728-101.837-21.655-117.9c-16.83-15.988-44.308-131.251-19.6-151.293a3.7 3.7 0 0 1 .349-.289l15.639-36.091s2.406-3.609 7.218 1.2a131.369 131.369 0 0 1 10.827 13.233l.686.277 33 12.957-13.233 58.949S1115.56 476.7 1102.32 485.12z" class="prefix__cls-8" data-name="Path 5912" transform="translate(-870.512 -121.203)"/>
        <path id="prefix__Path_5913" d="M1039.25 213.512l-9.107 33.408-25.613-11.742a3.71 3.71 0 0 1 .349-.289l15.639-36.091s2.406-3.609 7.218 1.2a131.36 131.36 0 0 1 10.827 13.233z" class="prefix__cls-2" data-name="Path 5913" transform="translate(-870.513 -121.203)"/>
        <path id="prefix__Path_5914" d="M976.606 204.212L973 245.115l-.192 1.865-27.477 261.6s-24.061-8.421-32.482-18.046 19.246-116.694 19.246-116.694L934.5 239.1s21.342-15.026 30.064-23.279c2.045-1.925 3.393-3.477 3.621-4.391 1.203-4.812 8.421-7.218 8.421-7.218z" class="prefix__cls-8" data-name="Path 5914" transform="translate(-870.513 -121.204)"/>
        <path id="prefix__Path_5915" d="M976.606 204.212L973 245.115l-.192 1.865-17.252-2.466 9.011-28.692c2.045-1.925 3.393-3.477 3.621-4.391 1.2-4.813 8.418-7.219 8.418-7.219z" class="prefix__cls-2" data-name="Path 5915" transform="translate(-870.513 -121.203)"/>
        <path id="prefix__Path_5916" d="M1040.97 406.923l-13.233 12.03s6.015 25.264 13.233 26.467c0 0 4.812-7.218 6.015-13.233s12.03-12.03 12.03-12.03z" class="prefix__cls-7" data-name="Path 5916" transform="translate(-870.513 -121.204)"/>
        <path id="prefix__Path_5917" d="M1056.61 224.062l15.639 2.406s51.73 87.821 45.715 119.1-54.136 85.415-54.136 85.415l-30.076-24.061 44.512-60.152-22.854-72.18z" class="prefix__cls-8" data-name="Path 5917" transform="translate(-870.513 -121.203)"/>
        <path id="prefix__Path_5918" d="M966.906 168.3s0-29.707 7.219-36.458h8.663s10.107-14.853 23.1-9.452 34.651 14.853 33.207 29.707-5.947 24.45-5.947 24.45-2.406 0-7.769-8.075c-7.166-10.79 9.385-7.427-12.272-11.477s-34.651-9.452-37.538-4.051-8.663 15.356-8.663 15.356z" class="prefix__cls-9" data-name="Path 5918" transform="translate(-870.513 -121.203)"/>
        <path id="prefix__Path_5919" d="M982.645 133.854s1.154-8.682 5.9-10.551z" class="prefix__cls-9" data-name="Path 5919" transform="translate(-870.513 -121.203)"/>
        <path id="prefix__Path_5920" d="M982.624 135.64s-2.41-8.42 1.2-12.031z" class="prefix__cls-9" data-name="Path 5920" transform="translate(-870.513 -121.203)"/>
    </g>
</svg>
