<?xml version="1.0" encoding="iso-8859-1"?>
<!-- Generator: Adobe Illustrator 19.0.0, SVG Export Plug-In . SVG Version: 6.00 Build 0)  -->
<svg version="1.1" id="Layer_1" xmlns="http://www.w3.org/2000/svg" xmlns:xlink="http://www.w3.org/1999/xlink" x="0px" y="0px"
	 viewBox="0 0 395.638 395.638" style="enable-background:new 0 0 395.638 395.638;" xml:space="preserve">
<g>
	<g>
		<polygon points="254,313.071 206.351,360.721 206.351,138.881 189.285,138.881 189.285,360.721 141.636,313.071 129.56,325.147 
			197.819,393.406 266.076,325.147 		"/>
	</g>
</g>
<g>
	<g>
		<path d="M376.209,143.738c-9.845-10.501-22.447-17.721-36.361-21.134c3.413-10.632,4.858-21.659,4.07-32.817
			c-1.444-23.366-12.076-45.287-30.061-61.827c-17.852-16.407-40.955-25.465-64.976-25.728c-0.262,0-0.394,0-0.656,0
			c-39.774,0-75.478,24.284-89.654,59.464C144,50.276,125.098,44.631,105.934,46.47c-27.567,2.757-51.457,21.003-61.04,46.73
			c-4.332,11.42-5.513,23.104-3.413,34.786C16.408,139.8,0,164.741,0,192.306c0,38.724,29.929,80.073,74.428,80.073H156.6v-17.065
			H74.296c-33.867,0-57.363-33.211-57.363-63.008c0-22.84,14.964-43.45,37.279-51.194l7.614-2.625l-2.231-7.744
			c-3.019-10.632-2.625-21.134,1.313-31.504c7.22-19.69,25.597-33.604,46.6-35.704c18.64-1.707,36.755,5.513,48.437,19.296
			l11.026,13.127l3.806-16.671c7.876-34.916,40.693-60.119,77.841-59.857c40.824,0.261,75.872,32.421,78.235,71.538
			c0.787,12.076-1.313,23.76-6.432,34.916l-4.987,10.895l11.945,1.05c28.748,2.625,51.194,26.385,51.194,54.213
			c0,18.903-7.614,63.008-77.972,63.008h-61.695v17.065h61.695c70.096,0,95.037-41.349,95.037-80.073
			C395.636,174.192,388.68,156.995,376.209,143.738z"/>
	</g>
</g>
<g>
</g>
<g>
</g>
<g>
</g>
<g>
</g>
<g>
</g>
<g>
</g>
<g>
</g>
<g>
</g>
<g>
</g>
<g>
</g>
<g>
</g>
<g>
</g>
<g>
</g>
<g>
</g>
<g>
</g>
</svg>
