<svg xmlns="http://www.w3.org/2000/svg" width="29.005" height="30.349" viewBox="0 0 29.005 30.349">
    <path id="prefix__icon-user" d="M17.5 17.175a7.833 7.833 0 0 1-8.054-7.588A7.833 7.833 0 0 1 17.5 2a7.833 7.833 0 0 1 8.06 7.587 7.833 7.833 0 0 1-8.06 7.588zm0-3.035a4.7 4.7 0 0 0 4.834-4.552A4.7 4.7 0 0 0 17.5 5.035a4.7 4.7 0 0 0-4.834 4.552A4.7 4.7 0 0 0 17.5 14.14zM32 30.832a1.614 1.614 0 0 1-3.223 0V27.8a4.7 4.7 0 0 0-4.834-4.552H11.057A4.7 4.7 0 0 0 6.223 27.8v3.035a1.567 1.567 0 0 1-1.611 1.517A1.567 1.567 0 0 1 3 30.832V27.8a7.833 7.833 0 0 1 8.057-7.587h12.891a7.833 7.833 0 0 1 8.057 7.587z" transform="translate(-3 -2)" style="fill:#bebebe"/>
</svg>
