<svg xmlns="http://www.w3.org/2000/svg" width="30.124" height="30.102" viewBox="0 0 30.124 30.102">
  <defs>
    <style>
      .cls-1 {
        fill: #bebebe;
      }
    </style>
  </defs>
  <path id="icon-chat" class="cls-1" d="M8.025,20.074H5.012A3.012,3.012,0,0,1,2,17.062V5.012A3.021,3.021,0,0,1,5.012,2H23.086A3.012,3.012,0,0,1,26.1,5.012V8.025h3.012a3.012,3.012,0,0,1,3.012,3.012v19.58a1.506,1.506,0,0,1-2.561,1.054L23.96,26.1H11.037a3.012,3.012,0,0,1-3.012-3.012Zm0-3.012V11.037a3.021,3.021,0,0,1,3.012-3.012H23.086V5.012H5.012V17.062Zm21.086-6.025H11.037V23.086H24.593a1.506,1.506,0,0,1,1.054.452l3.464,3.449Z" transform="translate(-2 -2)"/>
</svg>
