<svg xmlns="http://www.w3.org/2000/svg" width="27" height="30" viewBox="0 0 27 30">
  <defs>
    <style>
      .cls-1 {
        fill: #bebebe;
      }
    </style>
  </defs>
  <path id="icon-refresh" class="cls-1" d="M7.5,27.05V30.5a1.5,1.5,0,0,1-3,0V23A1.5,1.5,0,0,1,6,21.5h7.5a1.5,1.5,0,1,1,0,3H9.15A10.5,10.5,0,0,0,27,17a1.5,1.5,0,0,1,3,0A13.5,13.5,0,0,1,7.5,27.05Zm18-20.1V3.5a1.5,1.5,0,1,1,3,0V11A1.5,1.5,0,0,1,27,12.5H19.5a1.5,1.5,0,0,1,0-3h4.35A10.5,10.5,0,0,0,6,17a1.5,1.5,0,0,1-3,0A13.5,13.5,0,0,1,25.5,6.95Z" transform="translate(-3 -2)"/>
</svg>
