<svg xmlns="http://www.w3.org/2000/svg" width="24" height="30" viewBox="0 0 24 30">
  <defs>
    <style>
      .cls-1 {
        fill: #bebebe;
      }
    </style>
  </defs>
  <path id="icon-file-plus" class="cls-1" d="M7,2H20.5a1.5,1.5,0,0,1,1.05.45l6,6A1.5,1.5,0,0,1,28,9.5V29a3,3,0,0,1-3,3H7a3,3,0,0,1-3-3V5A3.009,3.009,0,0,1,7,2ZM20.5,5.615V9.5h3.885ZM25,12.5H20.5a3,3,0,0,1-3-3V5H7V29H25Zm-7.5,6h3a1.5,1.5,0,0,1,0,3h-3v3a1.5,1.5,0,0,1-3,0v-3h-3a1.5,1.5,0,0,1,0-3h3v-3a1.5,1.5,0,0,1,3,0Z" transform="translate(-4 -2)"/>
</svg>
