<svg xmlns="http://www.w3.org/2000/svg" enable-background="new 0 0 512 512" height="512" width="512"><rect id="backgroundrect" width="100%" height="100%" x="0" y="0" fill="none" stroke="none"/><g class="currentLayer" style=""><title>Layer 1</title><path d="m237.102 366v-90.018h-90c-11.046 0-20-8.954-20-20s8.954-20 20-20h90v-90.982c0-11.046 8.954-20 20-20s20 8.954 20 20v90.982h90c11.046 0 20 8.954 20 20s-8.954 20-20 20h-90v90.018c0 11.046-8.954 20-20 20s-20-8.954-20-20zm254.898-15c11.046 0 20-8.954 20-20v-251c0-44.112-35.888-80-80-80h-352c-44.112 0-80 35.888-80 80v352c0 44.112 35.888 80 80 80h352c44.112 0 80-35.888 80-80 0-11.046-8.954-20-20-20s-20 8.954-20 20c0 22.056-17.944 40-40 40h-352c-22.056 0-40-17.944-40-40v-352c0-22.056 17.944-40 40-40h352c22.056 0 40 17.944 40 40v251c0 11.046 8.954 20 20 20z" id="svg_1" class="selected" fill="#ffffff" fill-opacity="1"/></g></svg>