<svg xmlns="http://www.w3.org/2000/svg" width="100" height="100" viewBox="0 0 100 100">
    <path d="M79.368 76.19a3.175 3.175 0 0 1-6.349 0v-1.587h-6.351v-3.376a6.349 6.349 0 0 0 0-12.3V52.38H47.617a6.356 6.356 0 0 0-6.349 6.349v34.922A6.356 6.356 0 0 0 47.617 100h34.922a6.356 6.356 0 0 0 6.349-6.349V74.603h-9.52zM44.443 58.729a3.178 3.178 0 0 1 3.175-3.175h15.873v6.349h1.587a3.175 3.175 0 1 1 0 6.349h-1.587v6.349h-3.376a6.349 6.349 0 0 0-12.3 0h-3.372zm3.175 38.1a3.178 3.178 0 0 1-3.175-3.175V77.78h6.349v-1.59a3.175 3.175 0 0 1 6.349 0v1.59h6.349v3.376a6.349 6.349 0 0 0 0 12.3v3.376zM82.337 77.78h3.376v15.871a3.178 3.178 0 0 1-3.175 3.175h-15.87V90.48h-1.59a3.175 3.175 0 1 1 0-6.349h1.59V77.78h3.376a6.349 6.349 0 0 0 12.3 0z" data-name="Path 110"/>
    <path d="M68.253 23.81a3.175 3.175 0 1 1 6.349 0v1.59h9.527v-6.352a6.35 6.35 0 1 0 0-12.7V0H65.078a6.356 6.356 0 0 0-6.349 6.349V25.4h9.524zm-2.973-1.587h-3.376V6.349a3.178 3.178 0 0 1 3.175-3.175h15.873v6.349h3.177a3.175 3.175 0 1 1 0 6.349h-3.177v6.349h-3.376a6.349 6.349 0 0 0-12.3 0z" data-name="Path 111"/>
    <path d="M84.127 35.567a4.768 4.768 0 0 0-4.762 4.762v1.587h3.175v-1.587a1.588 1.588 0 0 1 3.175 0v.273a1.593 1.593 0 0 1-.465 1.122l-1.315 1.315a4.727 4.727 0 0 0-1.4 3.367v1.861h3.175v-1.86a1.593 1.593 0 0 1 .465-1.122l1.319-1.318a4.727 4.727 0 0 0 1.4-3.367v-.273a4.768 4.768 0 0 0-4.767-4.76z" data-name="Path 112"/>
    <path d="M82.539 51.64h3.175v3.175h-3.175z" data-name="Path 113"/>
    <path d="M84.126 29.326a15.865 15.865 0 0 0-6.349 30.407v7.9l8-6.664a15.866 15.866 0 0 0-1.651-31.643zm.9 28.526l-.511.035-3.562 2.972v-3.326l-1.057-.373a12.7 12.7 0 1 1 5.133.692z" data-name="Path 114"/>
    <path d="M69.391 92.063h3.175v3.175h-3.175z" data-name="Path 115"/>
    <path d="M75.846 92.063h3.175v3.175h-3.175z" data-name="Path 116"/>
    <path d="M45.185 80.952h3.175v3.175h-3.175z" data-name="Path 117"/>
    <path d="M45.185 87.301h3.175v3.175h-3.175z" data-name="Path 118"/>
    <path d="M64.55 6.349h3.175v3.175H64.55z" data-name="Path 119"/>
    <path d="M71.005 6.349h3.175v3.175h-3.175z" data-name="Path 120"/>
    <path d="M46.799 58.095h3.175v3.175h-3.175z" data-name="Path 121"/>
    <path d="M53.254 58.095h3.175v3.175h-3.175z" data-name="Path 122"/>
    <path d="M50.795 24.806V5.645a5.556 5.556 0 1 0-11.111 0v15.463l-9.124.847a11.31 11.31 0 0 0-8.337-18.729 11.216 11.216 0 0 0-11.111 11.29 11.333 11.333 0 0 0 3.611 8.3A17.67 17.67 0 0 0 0 40.323v4.839a8.01 8.01 0 0 0 7.937 8.065h1.587v39.515A7.21 7.21 0 0 0 16.667 100a7.065 7.065 0 0 0 5.556-2.752A7.065 7.065 0 0 0 27.778 100a7.21 7.21 0 0 0 7.143-7.258V33.718l8.727-.887a7.993 7.993 0 0 0 7.146-8.024zm-36.509-10.29a7.938 7.938 0 1 1 7.937 8.065 8.01 8.01 0 0 1-7.937-8.065zm5.556 38.71a5.646 5.646 0 0 0 0-11.29H12.7V38.71h12.7v19.355H12.7v-4.839zm-3.175 43.548a4 4 0 0 1-3.967-4.032V61.29h7.937v31.452a4 4 0 0 1-3.97 4.032zM31.747 30.8v61.942a3.969 3.969 0 1 1-7.937 0V61.29h4.762V35.484H9.524v6.452H6.349v3.226h13.493a2.42 2.42 0 0 1 0 4.839H7.937a4.807 4.807 0 0 1-4.762-4.839v-4.839a14.418 14.418 0 0 1 14.286-14.517h6.494l18.9-1.747V5.645a2.381 2.381 0 1 1 4.762 0v19.161a4.794 4.794 0 0 1-4.287 4.815z" data-name="Path 123"/>
</svg>
