<svg xmlns="http://www.w3.org/2000/svg" width="99.744" height="102.376" viewBox="0 0 99.744 102.376">
    <g>
        <path d="M23.378 70.677L38.1 78.239a7.01 7.01 0 0 1 4.988-2.081h10.145a3.335 3.335 0 0 0 .666-.04c.092-.062.321-.278.507-.453l.1-.091c8.257-7.776 15.235-7.283 23.17-4.151a5.242 5.242 0 0 0 2.5.547h2.235a5.091 5.091 0 0 1 4.793-3.4h7.458a5.091 5.091 0 0 1 5.082 5.088v19.576a5.088 5.088 0 0 1-5.082 5.083h-7.464a5.091 5.091 0 0 1-4.793-3.395h-4.1a5.813 5.813 0 0 0-1.359.284l-19.3 5.161c-.845.229-1.621.455-2.372.673a24.448 24.448 0 0 1-6.782 1.337c-2.468 0-5.051-.777-8.448-3.043l-.05-.035-23.802-16.947a6.855 6.855 0 0 1 7.181-11.675zm62.736 22.562a1.1 1.1 0 0 0 1.083 1.084h7.465a1.1 1.1 0 0 0 1.084-1.084V73.662a1.1 1.1 0 0 0-1.084-1.089h-7.464a1.1 1.1 0 0 0-1.083 1.089zm-67.6-14.143l23.778 16.928c4.839 3.22 6.9 2.622 11.861 1.18.767-.223 1.561-.453 2.448-.694l19.307-5.163a9.577 9.577 0 0 1 2.394-.42h3.815V75.974l-2.128-.009a8.894 8.894 0 0 1-3.782-.822c-6.878-2.715-12.186-3.038-18.963 3.344l-.1.09a4.666 4.666 0 0 1-3.914 1.58H43.092a3.031 3.031 0 1 0 0 6.061h16.443a2 2 0 1 1 0 4H43.092a7.029 7.029 0 0 1-6.885-8.457l-14.654-7.527a3.034 3.034 0 0 0-4.07.848 3.018 3.018 0 0 0 1.035 4.013z" data-name="Path 99"/>
        <path d="M53.721 47.293a6.488 6.488 0 0 1-.693 11.966v2.978a6.618 6.618 0 0 1-6.607 6.613h-8.858a6.62 6.62 0 0 1-6.613-6.613v-2.978a6.488 6.488 0 0 1-.693-11.966c-.876-3.253-2.65-5.675-4.517-8.215-2.872-3.908-6.126-8.338-6.119-16.14 0-.7.029-1.412.086-2.125a2 2 0 1 1 3.986.317c-.048.608-.073 1.217-.073 1.81-.006 6.491 2.592 10.027 5.343 13.771 2.087 2.841 4.235 5.769 5.259 9.931h15.531c1.024-4.161 3.172-7.089 5.26-9.93 2.752-3.744 5.351-7.28 5.342-13.771A18.712 18.712 0 0 0 54.898 9.2 18.114 18.114 0 0 0 42.017 4h-.057a18.108 18.108 0 0 0-10.962 3.559 2 2 0 0 1-2.377-3.216A22.68 22.68 0 0 1 57.704 6.35a22.725 22.725 0 0 1 6.649 16.585c.01 7.806-3.246 12.236-6.119 16.144-1.867 2.54-3.642 4.961-4.518 8.214zM34.953 62.237a2.617 2.617 0 0 0 2.614 2.614h8.858a2.614 2.614 0 0 0 2.608-2.614v-2.614h-14.08zm15.938-11.6h-17.8a2.492 2.492 0 1 0 0 4.984h17.8a2.492 2.492 0 1 0 0-4.984z" data-name="Path 100"/>
        <path d="M39.99 14.606a2 2 0 1 1 4 0v12.4a2 2 0 1 1-4 0z" data-name="Path 101"/>
        <path d="M41.989 34.053a2 2 0 0 1 2 2v.011a2 2 0 1 1-2-2.011z" data-name="Path 102"/>
        <path d="M1.999 22.922h8.121a2 2 0 1 1 0 4H1.999a2 2 0 1 1 0-4z" data-name="Path 103"/>
        <path d="M13.48 10.042a1.99 1.99 0 0 1-1.112-.34L5.63 5.18a2 2 0 1 1 2.229-3.32l6.739 4.523a2 2 0 0 1-1.116 3.66z" data-name="Path 104"/>
        <path d="M5.628 44.661l6.739-4.523a2 2 0 1 1 2.229 3.32l-6.739 4.523a2 2 0 1 1-2.229-3.32z" data-name="Path 105"/>
        <path d="M81.978 26.921h-8.116a2 2 0 1 1 0-4h8.116a2 2 0 1 1 0 4z" data-name="Path 106"/>
        <path d="M78.349 5.181L71.61 9.704a2 2 0 1 1-2.229-3.32l6.739-4.523a2 2 0 1 1 2.229 3.32z" data-name="Path 107"/>
        <path d="M71.61 40.139l6.739 4.523a2 2 0 1 1-2.229 3.32l-6.739-4.523a2 2 0 1 1 2.229-3.32z" data-name="Path 108"/>
        <path d="M25.59 13.843a1.969 1.969 0 1 1 .006-.006z" data-name="Path 109"/>
    </g>
</svg>
