<svg xmlns="http://www.w3.org/2000/svg" width="100" height="100" viewBox="0 0 100 100">
    <path d="M83.333 17.657V8.333A8.344 8.344 0 0 0 75 0H8.333A8.344 8.344 0 0 0 0 8.333V45a8.317 8.317 0 0 0 7.473 8.247l6.265 16.263a8.335 8.335 0 0 0 10.772 4.78l39.123-15.07a24.093 24.093 0 0 0 2.076 21.392l.958 1.531v16.19A1.666 1.666 0 0 0 68.333 100h30A1.666 1.666 0 0 0 100 98.333V43.319a21.811 21.811 0 0 0-6.385-15.362zm0 9.968l5.058 13.131a5 5 0 0 1-2.87 6.462l-2.891 1.115a8.335 8.335 0 0 0 .7-3.333zM3.333 45V8.333a5 5 0 0 1 5-5H75a5 5 0 0 1 5 5v10.594h-.015l.015.038V45a5.068 5.068 0 0 1-.113.863L64.62 30.595a8.892 8.892 0 0 0-12.833 12.3L58.3 50H8.333a5 5 0 0 1-5-5zm21.352 8.333L12.833 57.9l-1.753-4.567zM23.312 71.18a5 5 0 0 1-6.463-2.868L14.037 61l19.895-7.667v-.01H61.35l2.166 2.362zm73.355 25.487H70V83.333h26.667zm0-16.667H69.258l-.723-1.155a20.783 20.783 0 0 1-.422-21.345 1.666 1.666 0 0 0-.218-1.953l-13.658-14.9a5.558 5.558 0 0 1 8.026-7.688l26.559 26.553 2.357-2.357-6.167-6.167 1.71-.667A8.334 8.334 0 0 0 91.5 39.555l-5.641-14.649 5.4 5.41a18.457 18.457 0 0 1 5.409 13zm0 0" data-name="Path 132"/>
    <path d="M24.556 30.157a5.6 5.6 0 0 0 5.6-5.6V14.216a5.6 5.6 0 0 0-5.6-5.6h-10.34a5.6 5.6 0 0 0-5.6 5.6v10.34a5.6 5.6 0 0 0 5.6 5.6zm-11.632-5.6V21.54h4.308v-4.308h-4.308v-3.016a1.293 1.293 0 0 1 1.292-1.292h10.34a1.293 1.293 0 0 1 1.293 1.292v3.016H21.54v4.308h4.308v3.016a1.293 1.293 0 0 1-1.292 1.292h-10.34a1.293 1.293 0 0 1-1.292-1.292zm0 0" data-name="Path 133"/>
    <path d="M10.77 28.048h8.616v4.308H10.77zm0 0" data-name="Path 134"/>
    <path d="M10.77 37.947h8.616v4.308H10.77zm0 0" data-name="Path 135"/>
    <path d="M37.533 37.947h8.616v4.308h-8.616zm0 0" data-name="Path 136"/>
    <path d="M17.95 28.048h8.616v4.308H17.95zm0 0" data-name="Path 137"/>
    <path d="M27.741 28.048h8.616v4.308h-8.616zm0 0" data-name="Path 138"/>
    <path d="M37.533 28.048h8.616v4.308h-8.616zm0 0" data-name="Path 139"/>
    <path d="M69.294 10.77h4.308v6.462h-4.308zm0 0" data-name="Path 140"/>
    <path d="M62.695 10.77h4.308v6.462h-4.308zm0 0" data-name="Path 141"/>
    <path d="M56.095 10.77h4.308v6.462h-4.308zm0 0" data-name="Path 142"/>
    <path d="M49.496 10.77h4.308v6.462h-4.308zm0 0" data-name="Path 143"/>
    <path d="M72.594 82.767h4.308v4.308h-4.308zm0 0" data-name="Path 144"/>
</svg>
