<svg xmlns="http://www.w3.org/2000/svg" width="100" height="100" viewBox="0 0 100 100">
    <path d="M96.774 6.446h-10.8L84.119 5.21A30.988 30.988 0 0 0 66.892 0H54.839a3.228 3.228 0 0 0-3.226 3.223 6.381 6.381 0 0 0 .9 3.225h-8.961a4.818 4.818 0 0 0-4.484 6.633 4.811 4.811 0 0 0-2.3 1.4l-1.631-1.629-2.358 2.348a3.114 3.114 0 0 1-3.453.632 3.075 3.075 0 0 1-1.906-2.851V9.669h-9.678v3.312a3.164 3.164 0 0 1-5.363 2.219l-2.347-2.346-6.845 6.839 2.347 2.346a3.115 3.115 0 0 1 .634 3.45A3.079 3.079 0 0 1 3.315 27.4H0v9.669h3.315A3.105 3.105 0 0 1 6.2 39.034a3.09 3.09 0 0 1-.66 3.389l-2.353 2.344 6.845 6.839 2.35-2.346a3.118 3.118 0 0 1 3.452-.635 3.084 3.084 0 0 1 1.908 2.854v3.312h1.613v3.265a44.086 44.086 0 0 0 .982 9.161 31.1 31.1 0 0 0-4.455 2.453l-1.855 1.236H3.226A3.228 3.228 0 0 0 0 74.129v19.338a3.228 3.228 0 0 0 3.226 3.223H12.9a3.227 3.227 0 0 0 2.934-1.9 31.2 31.2 0 0 0 17.071 5.121h13.869a4.82 4.82 0 0 0 1.876-.379c.279.1.556.2.839.295L50 100l.511-.169a43.979 43.979 0 0 0 19.2-12.758 3.368 3.368 0 0 1 .961.232 3.076 3.076 0 0 1 1.908 2.851v3.312h9.677v-3.313a3.161 3.161 0 0 1 5.361-2.219l2.348 2.346 6.845-6.839-2.345-2.343a3.115 3.115 0 0 1-.634-3.45 3.079 3.079 0 0 1 2.853-1.906H100v-9.672h-3.315a3.159 3.159 0 0 1-2.221-5.358l2.347-2.346-6.845-6.839-2.35 2.346a3.114 3.114 0 0 1-3.453.632 3.072 3.072 0 0 1-1.9-2.849v-3.313h-1.618v-16.02a31.233 31.233 0 0 0 3.516-2 3.227 3.227 0 0 0 2.935 1.9h9.677A3.228 3.228 0 0 0 100 29.007V9.669a3.228 3.228 0 0 0-3.226-3.223zM43.548 9.669h19.629a3.132 3.132 0 0 1 2.453 1.2 12.446 12.446 0 0 0-1.865 2.026H43.548a1.612 1.612 0 1 1 0-3.223zm9.945 14.893l-3-2h10.8v3.223h-5.751c-.698-.378-1.386-.779-2.048-1.223zm-9.035 1.222h-.91a1.612 1.612 0 1 1 0-3.223h5.963l-3 2c-.665.443-1.352.844-2.05 1.222zm-4.135-9.669H62.04a12.468 12.468 0 0 0-.687 3.223h-21.03a1.612 1.612 0 1 1 0-3.223zm-23.31 29.511a6.312 6.312 0 0 0-6.913 1.356l-.066.068-2.286-2.283.068-.068a6.38 6.38 0 0 0-4.5-10.858h-.09v-3.223h.089a6.312 6.312 0 0 0 5.856-3.951 6.3 6.3 0 0 0-1.355-6.907l-.068-.068 2.284-2.282.068.068a6.387 6.387 0 0 0 10.868-4.5v-.089h3.226v.089a6.387 6.387 0 0 0 10.868 4.5l.068-.068.358.359a4.827 4.827 0 0 0 3.577 4.606 4.784 4.784 0 0 0 1.1 5.245 26.708 26.708 0 0 1-6.8 1.3 11.285 11.285 0 1 0-14.013 14.11v4.241a6.478 6.478 0 0 0-2.342-1.649zm2.342-18.585v12.547A8.043 8.043 0 1 1 29.9 28.909a26.268 26.268 0 0 1-3.281-.416zM12.9 93.467H3.226V74.129H12.9zm33.874 3.223H32.908a27.935 27.935 0 0 1-16.779-5.65V73.38l1.542-1.028a27.764 27.764 0 0 1 15.437-4.669h8.827a3.225 3.225 0 0 1-3.219 3.223h-4.855v3.223h19.365a1.612 1.612 0 1 1 0 3.223H33.871v3.223h22.581a1.612 1.612 0 1 1 0 3.223H33.871v3.223h19.355a1.611 1.611 0 1 1 0 3.223H33.871v3.223h12.9a1.612 1.612 0 1 1 0 3.223zM29.032 58.056V38.57c.929.071 1.86.106 2.782.106a36.455 36.455 0 0 0 16.573-3.713v35.943h-4.122a6.376 6.376 0 0 0 .9-3.223 3.228 3.228 0 0 0-3.226-3.223h-8.831a31.052 31.052 0 0 0-3.426.209 34.538 34.538 0 0 1-.65-6.613zm32.237 23.919a4.822 4.822 0 0 0-3.56-4.436 4.818 4.818 0 0 0-4.484-6.633h-1.612V34.963a36.434 36.434 0 0 0 16.573 3.713c.923 0 1.853-.035 2.782-.106v19.488a34.244 34.244 0 0 1-9.699 23.917zM51.519 96a4.863 4.863 0 0 0 .094-.925 4.776 4.776 0 0 0-.3-1.611h1.91a4.829 4.829 0 0 0 4.81-4.552 37.439 37.439 0 0 0 16.161-30.856v-23.1l-1.816.232a33.317 33.317 0 0 1-4.192.268 32.408 32.408 0 0 1-17.337-4.594L50 30.333l-.848.525a32.408 32.408 0 0 1-17.337 4.594 33.336 33.336 0 0 1-4.192-.268l-1.816-.232v23.1a37.845 37.845 0 0 0 .687 7.118 30.7 30.7 0 0 0-3.113.862 40.966 40.966 0 0 1-.8-7.98V30.973l3.408.682a29.855 29.855 0 0 0 5.826.575A29.635 29.635 0 0 0 48.3 27.244L50 26.11l1.7 1.134a29.631 29.631 0 0 0 16.485 4.986 29.883 29.883 0 0 0 5.827-.575l3.406-.682v27.084A40.73 40.73 0 0 1 51.519 96zm28.77-32.6a8.046 8.046 0 0 1-4.811 15.327A43.9 43.9 0 0 0 80.289 63.4zm2.7-5.888a6.3 6.3 0 0 0 6.911-1.358l.068-.068 2.284 2.282-.068.068a6.38 6.38 0 0 0 4.5 10.858h.089v3.223h-.089a6.381 6.381 0 0 0-4.5 10.858l.068.068-2.284 2.282-.068-.068a6.387 6.387 0 0 0-10.868 4.5v.089h-3.226v-.089a6.3 6.3 0 0 0-3.882-5.816q1-1.339 1.89-2.751a11.178 11.178 0 0 0 3.6.6 11.273 11.273 0 0 0 3.145-22.1c.031-.675.081-1.346.081-2.027v-2.2a6.447 6.447 0 0 0 2.345 1.645zm-9.6-29.013a26.472 26.472 0 0 1-8.865.216v-8.37a9.269 9.269 0 0 1 2.99-6.813 8.369 8.369 0 0 0 6.063 2.583h.624v-3.223h-.624a5.181 5.181 0 0 1-4.665-2.9 6.366 6.366 0 0 0-5.727-3.542h-5.127a3.225 3.225 0 0 1-3.219-3.223h12.053a27.764 27.764 0 0 1 15.437 4.665l1.542 1.028v17.67a27.963 27.963 0 0 1-3.226 2.1v-1.649zm23.394.512H87.1V9.669h9.677z" data-name="Path 124"/>
    <path d="M75.531 19.709a11.256 11.256 0 0 0-7.986 7.394l3.173 1.059a7.925 7.925 0 0 1 5.624-5.207l1.559-.39-.807-3.244z" data-name="Path 125"/>
    <path d="M0 61.159h3.346v3.346H0z" data-name="Path 126"/>
    <path d="M6.691 61.159h3.346v3.346H6.691z" data-name="Path 127"/>
    <path d="M13.382 61.159h3.346v3.346h-3.346z" data-name="Path 128"/>
    <path d="M83.272 38.627h3.346v3.346h-3.346z" data-name="Path 129"/>
    <path d="M89.963 38.627h3.346v3.346h-3.346z" data-name="Path 130"/>
    <path d="M96.654 38.627H100v3.346h-3.346z" data-name="Path 131"/>
</svg>
